# xmcd
#
# Track frame offsets:
#  150
#  11415
#  23812
#  34235
#  46210
#  55255
#  64942
#  77612
#  88757
#  99630
#  111720
#  119580
#  130430
#  140647
#  152192
#  160965
#
# Disc length: 2266 seconds
#
# Revision: 0
# Processed by: cddbd v1.5.1PL2 Copyright (c) Steve Scherf et al.
# Submitted via: Collectorz.com_Music_Collector 6.10
#
DISCID=e308d810
DTITLE=Various Artist - Spotlite on Port Records Vol 1
DYEAR=1995
DGENRE=Doo Wop - Oldies - Rock and Roll
TTITLE0=Chancellors - There Goes My Girl
TTITLE1=The Impressions - Listen
TTITLE2=The Eboniers - Shut Your Mouth
TTITLE3=The Soothers - The Little White Cloud That Cried
TTITLE4=The Sedates - I Found
TTITLE5=The 5 Dreamers - Beverly
TTITLE6=The Latons - So In Love
TTITLE7=The Suburbans - Alphabet of Love
TTITLE8=The Starlites - Why
TTITLE9=The Sedates - Please Love Me Forever
TTITLE10=The Latons - Love Me
TTITLE11=The Chancellors - Tell Me You Love Me
TTITLE12=The Dreamers - You Don't Know
TTITLE13=The Impressions - Shortys Got To Go
TTITLE14=The Suburbans - I'd Like To Say
TTITLE15=The Eboniers - Hand In Hand
EXTD=
EXTT0=
EXTT1=
EXTT2=
EXTT3=
EXTT4=
EXTT5=
EXTT6=
EXTT7=
EXTT8=
EXTT9=
EXTT10=
EXTT11=
EXTT12=
EXTT13=
EXTT14=
EXTT15=
PLAYORDER=
